<svg width="1100" height="1202" viewBox="0 0 1100 1202" fill="none" xmlns="http://www.w3.org/2000/svg">
<path d="M695.682 858.162C708.665 999.384 665.485 1270.72 484.196 1184C257.584 1075.61 -163.735 865.403 317.992 586.059C158.429 564.556 -117.13 476.263 57.1355 295.112C274.968 68.6717 587.193 -174.334 616.815 182.085C625.376 227.722 583.373 397.06 585.196 406.779C587.475 418.927 794.994 -58.719 959.619 150.964C1151.56 395.436 1165.34 755.683 874.186 715.814C804.969 722.9 939.808 955.916 1025.2 1092.38C1046.06 1121.86 1067.04 1154.14 1087.85 1189.32C1088.4 1190.25 1061.2 1149.89 1025.2 1092.38C856.344 853.672 695.354 797.519 695.682 858.162Z" fill="#452E80" fill-opacity="0.92"/>
<path d="M1025.2 1092.38C939.808 955.916 804.969 722.9 874.186 715.814C1165.34 755.683 1151.56 395.436 959.619 150.964C794.994 -58.719 587.475 418.927 585.196 406.779C583.373 397.06 625.376 227.722 616.815 182.085C587.193 -174.334 274.968 68.6717 57.1355 295.112C-117.13 476.263 158.429 564.556 317.992 586.059C-163.735 865.403 257.584 1075.61 484.196 1184C665.485 1270.72 708.665 999.384 695.682 858.162C695.354 797.519 856.344 853.672 1025.2 1092.38ZM1025.2 1092.38C1061.2 1149.89 1088.4 1190.25 1087.85 1189.32C1067.04 1154.14 1046.06 1121.86 1025.2 1092.38Z" stroke="#452E80"/>
</svg>
