<svg width="476" height="520" viewBox="0 0 478 541" fill="none" xmlns="http://www.w3.org/2000/svg">
<path d="M158.376 339.14C106.731 366.186 -3.16459 392.256 1.41222 309.772C7.13321 206.666 21.0653 13.6128 202.666 152.979C185.857 88.9627 176.272 -29.6002 272.412 8.2747C392.587 55.6183 533.837 136.247 403.002 203.31C386.995 213.71 316.054 224.257 312.646 226.472C308.385 229.24 522.427 233.333 468.503 328.736C405.632 439.968 270.862 501.61 240.43 384.701C226.899 359.501 159.442 447.236 120.945 501.061C113.002 513.607 104.02 526.634 93.9058 540.052C93.6383 540.407 104.72 523.746 120.945 501.061C185.237 399.504 181.374 329.52 158.376 339.14Z" fill="#452E80" fill-opacity="0.92"/>
<path d="M120.945 501.061C159.442 447.236 226.899 359.501 240.43 384.701C270.862 501.61 405.632 439.968 468.503 328.736C522.427 233.333 308.385 229.24 312.646 226.472C316.054 224.257 386.995 213.71 403.002 203.31C533.837 136.247 392.587 55.6183 272.412 8.2747C176.272 -29.6002 185.857 88.9627 202.666 152.979C21.0653 13.6128 7.13321 206.666 1.41222 309.772C-3.16459 392.256 106.731 366.186 158.376 339.14C181.374 329.52 185.237 399.504 120.945 501.061ZM120.945 501.061C104.72 523.746 93.6383 540.407 93.9058 540.052C104.02 526.634 113.002 513.607 120.945 501.061Z" stroke="#452E80"/>
</svg>
