<svg width="819" height="997" viewBox="0 0 819 997" fill="none" xmlns="http://www.w3.org/2000/svg">
<path d="M446.649 679.426C430.971 786.85 350.148 981.026 230.797 883.962C81.6079 762.632 -194.211 530.602 214.406 409.161C99.5207 364.527 -89.7019 249.375 72.4888 145.835C275.227 16.411 551.183 -108.404 509.272 162.151C507.454 197.65 445.811 316.131 445.424 323.69C444.94 333.14 685.079 14.9221 769.965 200.504C868.934 416.876 814.549 687.438 605.031 605.524C552.249 598.377 610.782 795.978 649.847 912.853C660.079 938.54 669.9 966.322 679.074 996.239C679.316 997.03 666.311 962.111 649.847 912.853C567.016 704.913 457.287 634.238 446.649 679.426Z" fill="#452E80" fill-opacity="0.92"/>
<path d="M649.847 912.853C610.782 795.978 552.249 598.377 605.031 605.524C814.549 687.438 868.934 416.876 769.965 200.504C685.079 14.9221 444.94 333.14 445.424 323.69C445.811 316.131 507.454 197.65 509.272 162.151C551.183 -108.404 275.227 16.411 72.4888 145.835C-89.7019 249.375 99.5207 364.527 214.406 409.161C-194.211 530.602 81.6079 762.632 230.797 883.962C350.148 981.026 430.971 786.85 446.649 679.426C457.287 634.238 567.016 704.913 649.847 912.853ZM649.847 912.853C666.311 962.111 679.316 997.03 679.074 996.239C669.9 966.322 660.079 938.54 649.847 912.853Z" stroke="#452E80"/>
</svg>
