<svg width="60" height="67" viewBox="0 0 60 67" fill="none" xmlns="http://www.w3.org/2000/svg">
<path d="M29.8413 0C13.6643 0 0 15.2633 0 33.3333C0 51.4033 13.6643 66.6667 29.8413 66.6667C46.0182 66.6667 59.6825 51.4033 59.6825 33.3333C59.6825 15.2633 46.0182 0 29.8413 0ZM29.8413 16.6667C34.9949 16.6667 38.7937 20.9067 38.7937 26.6667C38.7937 32.4267 34.9949 36.6667 29.8413 36.6667C24.6907 36.6667 20.8889 32.4267 20.8889 26.6667C20.8889 20.9067 24.6907 16.6667 29.8413 16.6667ZM14.6043 49.24C17.2811 44.84 21.7453 41.9067 26.8571 41.9067H32.8254C37.9402 41.9067 42.4015 44.84 45.0782 49.24C41.2645 53.8 35.8543 56.6667 29.8413 56.6667C23.8283 56.6667 18.418 53.8 14.6043 49.24Z" fill="#452E80"/>
</svg>
